<svg width="512" height="512" viewBox="0 0 512 512" fill="none" xmlns="http://www.w3.org/2000/svg">
  <!-- Background gradient -->
  <defs>
    <linearGradient id="grad1" x1="0%" y1="0%" x2="100%" y2="100%">
      <stop offset="0%" style="stop-color:#8B5CF6;stop-opacity:1" />
      <stop offset="100%" style="stop-color:#3B82F6;stop-opacity:1" />
    </linearGradient>
  </defs>
  
  <!-- Rounded rectangle background -->
  <rect width="512" height="512" rx="100" fill="url(#grad1)"/>
  
  <!-- Image icon -->
  <path d="M128 160C128 142.327 142.327 128 160 128H352C369.673 128 384 142.327 384 160V352C384 369.673 369.673 384 352 384H160C142.327 384 128 369.673 128 352V160Z" fill="white" fill-opacity="0.2"/>
  
  <!-- Mountains/landscape -->
  <path d="M128 320L192 256L256 320L320 240L384 304V352C384 369.673 369.673 384 352 384H160C142.327 384 128 369.673 128 352V320Z" fill="white" fill-opacity="0.9"/>
  
  <!-- Sun/circle -->
  <circle cx="320" cy="200" r="32" fill="white" fill-opacity="0.9"/>
  
  <!-- Compression arrows -->
  <g opacity="0.95">
    <!-- Down arrow -->
    <path d="M256 140L256 180M256 180L240 165M256 180L272 165" stroke="white" stroke-width="12" stroke-linecap="round" stroke-linejoin="round"/>
    
    <!-- Compression lines -->
    <line x1="200" y1="210" x2="312" y2="210" stroke="white" stroke-width="8" stroke-linecap="round"/>
    <line x1="210" y1="230" x2="302" y2="230" stroke="white" stroke-width="6" stroke-linecap="round"/>
  </g>
</svg>
